#!OML:ASF G:\JayActor3\Patient Classification 1\Patient 1\Session 5\male.ASF
:FULLY-SPECIFIED
:DEGREES
539
root 7.21383 16.3548 17.0537 -51.7871 -89.6109 39.5114
lowerback 11.1003 -0.0542543 1.85602
upperback 2.2704 0.00725363 -1.27156
thorax -3.84984 -0.0547072 -2.3704
lowerneck 0.556439 0.715376 2.78402
upperneck 4.52609 0.809045 1.91014
head 1.30076 0.453914 0.133893
rclavicle 3.29237e-015 -1.17283e-014
rhumerus -38.0496 -25.6631 -75.1564
rradius 11.1272
rwrist 34.397
rhand -14.1698 -4.9237
rfingers 7.12502
rthumb 11.9653 -34.5617
lclavicle 3.29237e-015 -1.17283e-014
lhumerus -32.4872 28.948 71.9028
lradius 9.48388
lwrist 4.39855
lhand -27.2626 16.6448
lfingers 7.12502
lthumb -0.673674 46.6235
rfemur -18.6823 -1.49656 30.955
rtibia 35.8079
rfoot -8.89218 -17.1962
rtoes 17.0081
lfemur -12.3275 4.76284 -12.5604
ltibia 61.5041
lfoot -8.98651 1.21533
ltoes -18.1434
540
root 7.05363 16.3331 17.1127 -62.5924 -90.4106 50.2332
lowerback 11.1713 0.0267134 2.5156
upperback 2.40091 0.197714 -1.06067
thorax -3.73969 0.0352816 -2.54991
lowerneck 0.571919 0.674049 2.79993
upperneck 4.24128 0.764417 1.92119
head 1.20822 0.428663 0.133378
rclavicle -1.2424e-016 -5.76476e-015
rhumerus -37.4386 -25.069 -75.8537
rradius 11.4187
rwrist 33.7083
rhand -14.4866 -4.86729
rfingers 7.12502
rthumb 11.6599 -34.5229
lclavicle -1.2424e-016 -5.76476e-015
lhumerus -32.379 28.6564 72.4281
lradius 9.78975
lwrist 4.64483
lhand -26.7185 16.4644
lfingers 7.12502
lthumb -0.14816 46.444
rfemur -18.6103 -1.89265 31.5236
rtibia 36.8931
rfoot -9.60842 -16.6168
rtoes 16.5011
lfemur -13.8933 3.93396 -12.1328
ltibia 60.8577
lfoot -10.3604 1.49607
ltoes -18.2069
541
root 6.89388 16.3159 17.1677 -47.9865 -91.0075 35.4948
lowerback 11.2931 0.142974 2.80916
upperback 2.51869 0.389366 -0.92294
thorax -3.67023 0.128517 -2.5994
lowerneck 0.629905 0.648879 2.83345
upperneck 4.04731 0.738656 1.93839
head 1.13746 0.413576 0.132201
rclavicle -7.04443e-015 1.98785e-016
rhumerus -36.8182 -24.21 -76.706
rradius 11.788
rwrist 32.7304
rhand -14.7285 -4.80392
rfingers 7.12502
rthumb 11.4266 -34.4725
lclavicle -7.04443e-015 1.98785e-016
lhumerus -32.3444 28.356 72.8705
lradius 10.0619
lwrist 4.74542
lhand -26.0402 16.2581
lfingers 7.12502
lthumb 0.506884 46.2373
rfemur -18.4548 -2.31705 31.7637
rtibia 37.9401
rfoot -10.3245 -15.9608
rtoes 16.015
lfemur -15.0883 3.12885 -12.0069
ltibia 59.446
lfoot -11.7741 1.83219
ltoes -18.2705
542
root 6.73329 16.3033 17.2169 -38.8018 -91.5103 26.1691
lowerback 11.4415 0.276089 2.8193
upperback 2.58108 0.571132 -0.825214
thorax -3.67576 0.217888 -2.52997
lowerneck 0.746086 0.637618 2.87745
upperneck 3.98741 0.727707 1.96591
head 1.09908 0.406996 0.132787
rclavicle -4.32978e-015 -7.95139e-015
rhumerus -36.2665 -23.1019 -77.6566
rradius 12.2139
rwrist 31.4625
rhand -14.9472 -4.75269
rfingers 7.12502
rthumb 11.2157 -34.4329
lclavicle -4.32978e-015 -7.95139e-015
lhumerus -32.0756 27.033 73.9364
lradius 10.2768
lwrist 5.85987
lhand -25.4142 16.264
lfingers 7.12502
lthumb 1.11153 46.2408
rfemur -18.2391 -2.61776 31.8034
rtibia 38.9367
rfoot -11.0724 -15.3823
rtoes 15.5051
lfemur -15.943 2.3339 -12.0516
ltibia 57.3302
lfoot -13.1352 2.11832
ltoes -18.4298
543
root 6.56983 16.2958 17.2596 -31.405 -91.9191 18.6349
lowerback 11.578 0.402989 2.60092
upperback 2.58258 0.718438 -0.758027
thorax -3.74391 0.291133 -2.35924
lowerneck 0.918278 0.637015 2.92695
upperneck 4.06991 0.7268 2.00496
head 1.09586 0.406658 0.136266
rclavicle -5.9449e-015 1.19271e-015
rhumerus -35.8347 -21.8897 -78.6047
rradius 12.6487
rwrist 30.041
rhand -15.2214 -4.69715
rfingers 7.12502
rthumb 10.9513 -34.3915
lclavicle -5.9449e-015 1.19271e-015
lhumerus -32.0255 26.0362 74.6646
lradius 10.4283
lwrist 6.53371
lhand -24.6649 16.2632
lfingers 7.12502
lthumb 1.83521 46.2351
rfemur -17.9346 -2.68263 31.7012
rtibia 39.83
rfoot -11.8819 -15.0085
rtoes 15.047
lfemur -16.4611 1.52104 -12.2153
ltibia 54.5726
lfoot -14.3273 2.26415
ltoes -18.894
544
root 6.40282 16.288 17.2967 -25.6014 -92.2541 12.7117
lowerback 11.6618 0.510073 2.24674
upperback 2.53983 0.822545 -0.714408
thorax -3.83485 0.344343 -2.13035
lowerneck 1.09859 0.645299 2.9837
upperneck 4.29323 0.731785 2.05375
head 1.13541 0.41094 0.141918
rclavicle -1.57785e-015 -5.96354e-016
rhumerus -35.5182 -20.7297 -79.4896
rradius 13.056
rwrist 28.6139
rhand -15.543 -4.65542
rfingers 7.12502
rthumb 10.641 -34.366
lclavicle -1.57785e-015 -5.96354e-016
lhumerus -32.133 25.405 75.0602
lradius 10.507
lwrist 6.79198
lhand -23.8441 16.287
lfingers 7.12502
lthumb 2.62795 46.2505
rfemur -17.565 -2.43281 31.5465
rtibia 40.6137
rfoot -12.7345 -14.9278
rtoes 14.676
lfemur -16.7064 0.721262 -12.4239
ltibia 51.3238
lfoot -15.2224 2.14653
ltoes -19.7593
